<svg width="76" height="79" viewBox="0 0 76 79" fill="none" xmlns="http://www.w3.org/2000/svg">
<path d="M45 46.7082C45 40.3851 43.0823 34.2106 39.5 29V29L45 17L76 79H68.25V79C63.5003 79 59.1582 76.3165 57.0341 72.0682L52.75 63.5L45 48V46.7082Z" fill="#2D2D2D"/>
<path d="M32.0544 54.1021C30.3747 50.0897 27.78 46.5257 24.4774 43.6949L21.9004 41.4861C19.9778 39.8381 17.818 38.4889 15.4937 37.4838L12.4321 36.1598C5.18918 33.0278 0.5 25.8912 0.5 18V18L0.882086 19.5283C1.87499 23.5 5.01099 26.5795 9 27.5V27.5V27.5C5.45819 20.4164 4.65209 12.2757 6.73592 4.63498L8 0V5.84923C8 13.6955 13.7403 20.361 21.4997 21.525L23.1855 21.7778C26.3378 22.2507 29.3064 23.5576 31.7839 25.5632L32.8628 26.4366C36.5034 29.3837 38.9851 33.5226 39.8697 38.1222V38.1222C40.6172 42.0097 40.6668 45.9992 40.016 49.904L39.0056 55.9661C38.6859 57.8848 39.2512 59.845 40.5434 61.2988V61.2988C41.7879 62.6989 43.5718 63.5 45.4451 63.5H51.5V63.5C44.3972 66.7782 35.992 63.5088 32.9713 56.2927L32.0544 54.1021Z" fill="#8A1818"/>
<path d="M14 79L25.625 55.75L33.375 71.25L32.9659 72.0682C30.8418 76.3165 26.4997 79 21.75 79V79H14Z" fill="black"/>
</svg>
