<svg xmlns="http://www.w3.org/2000/svg" enable-background="new 0 0 64 64" viewBox="0 0 64 64">
	<path fill="#fff" d="M32,5C17.1,5,5,17.1,5,32s12.1,27,27,27s27-12.1,27-27S46.9,5,32,5z M32,57C18.2,57,7,45.8,7,32S18.2,7,32,7s25,11.2,25,25S45.8,57,32,57z"/>
	<!-- <path fill="#fff" d="M32,11c-11.6,0-21,9.4-21,21c0,11.6,9.4,21,21,21s21-9.4,21-21C53,20.4,43.6,11,32,11z M32,51c-10.5,0-19-8.5-19-19s8.5-19,19-19s19,8.5,19,19S42.5,51,32,51z"/> -->
	<!-- <path fill="#fff" d="M30.5 24.5c-2 .1-3.5 1.5-3.5 3.3s1.5 3.3 3.5 3.3c0 0 0 0 0 0 .3 0 .5-.1.7-.3.2-.2.3-.4.3-.7v-4.7c0-.3-.1-.5-.3-.7S30.7 24.5 30.5 24.5zM29.5 28.8c-.3-.2-.5-.6-.5-1s.2-.7.5-1V28.8zM33.6 32.7c-.3 0-.6.1-.8.3-.2.2-.3.5-.3.7v4.6c0 .3.1.5.3.7.2.2.4.3.7.3 0 0 .1 0 .1 0 1.9-.2 3.3-1.6 3.3-3.3S35.5 32.9 33.6 32.7zM34.5 36.9v-1.7c.2.2.4.5.4.8S34.7 36.7 34.5 36.9z"/> -->
	<path fill="#fff" d="M34.5,29.3v-2.8h2.2c1.6,0,3-1.2,3-2.8c0-1.5-1.3-2.8-3-2.8h-2.2v-0.5c0-1.4-1.1-2.5-2.5-2.5
		s-2.5,1.1-2.5,2.5v0.6c-3.7,0.5-6.5,3.4-6.5,6.8c0,3.4,2.8,6.3,6.5,6.8v2.8h-2.3c-1.7,0-3,1.3-3,2.8s1.4,2.8,3,2.8h2.3v0.5
		c0,1.4,1.1,2.5,2.5,2.5s2.5-1.1,2.5-2.5v-0.6c3.7-0.5,6.5-3.3,6.5-6.8C41,32.6,38.2,29.8,34.5,29.3z M33.5,41c-0.5,0-1,0.5-1,1
		v1.5c0,0.3-0.2,0.5-0.5,0.5s-0.5-0.2-0.5-0.5V42c0-0.6-0.4-1-1-1h-3.3c-0.6,0-1-0.4-1-0.8s0.5-0.8,1-0.8h3.3c0.6,0,1-0.4,1-1v-4.7
		c0-0.5-0.4-1-1-1c-3,0-5.5-2.2-5.5-4.8c0-2.6,2.5-4.8,5.5-4.8c0.5,0,1-0.5,1-1v-1.5c0-0.3,0.2-0.5,0.5-0.5s0.5,0.2,0.5,0.5V22
		c0,0.6,0.4,1,1,1h3.2c0.5,0,1,0.3,1,0.8c0,0.4-0.4,0.8-1,0.8h-3.2c-0.6,0-1,0.4-1,1v4.7c0,0.5,0.4,1,1,1c3,0.1,5.5,2.3,5.5,4.9
		S36.5,40.9,33.5,41z"/>
		</svg>