<svg xmlns="http://www.w3.org/2000/svg" viewBox="0 0 32 32"><path fill="#fff" d="M29,14.15a1,1,0,0,0,0-.29l0-.09a1,1,0,0,0-.12-.3h0l-2-3a1,1,0,0,0-1.66,1.11l1,1.45H23V3a1,1,0,0,0-1-1H4L3.9,2l-.16,0a1,1,0,0,0-.25.11l-.09,0,0,0a1,1,0,0,0-.19.23,1,1,0,0,0-.07.1A1,1,0,0,0,3,3V25a1,1,0,0,0,.07.36,1,1,0,0,0,.05.1,1,1,0,0,0,.13.2l.09.09a1,1,0,0,0,.19.13l.12.06.06,0,14,4A1,1,0,0,0,18,30a1,1,0,0,0,1-1V26h3a1,1,0,0,0,1-1V15h3.13l-1,1.45a1,1,0,1,0,1.66,1.11l2-3v0l0,0a1,1,0,0,0,.1-.27S29,14.16,29,14.15ZM21,13H19V7a1,1,0,0,0-.73-1L11.14,4H21Zm0,11H19V15h2Z" class="color000000 svgShape" data-name="Layer 2"/></svg>